<svg id="Group_238" data-name="Group 238" xmlns="http://www.w3.org/2000/svg" width="950" height="467.055" viewBox="0 0 950 467.055">
  <path id="Path_1" data-name="Path 1" d="M383,218.424c-33.8,26.5-63.279,57.954-96.368,85.276V248.264a6.838,6.838,0,0,1,6.673-6.989h24.975c6.512,0,9.176-8.778,3.851-12.708l-132.661-98.05a6.421,6.421,0,0,0-7.67,0L49.138,228.566c-5.31,3.93-2.663,12.708,3.851,12.708H77.964a6.838,6.838,0,0,1,6.673,6.989v78.128a232.292,232.292,0,0,0,74.594,24.04c1.078-9.619,2.171-19.254,2.82-28.92.667-10.207,1.506-20.4-.411-30.49-3.74-19.763-13.091-37.955-22.346-55.594,1.11,1.759,19.192,29.84,45.008,29.951,25.418-.111,43.342-27.3,44.942-29.84-1.3,2.187-2.36,4.611-3.5,6.893-17.036,34.089-24.96,72.185-25.816,110.251,98.05-3,180.852-66.417,212.515-154.275C401.888,205.286,391.493,211.768,383,218.424ZM184.3,255.332a14.889,14.889,0,1,1,14.88-14.9A14.9,14.9,0,0,1,184.3,255.332Z" transform="translate(40.976 114.372)" fill="#18d16c"/>
  <path id="Path_2" data-name="Path 2" d="M134.23,179.223Q155.4,97.48,176.575,15.736c.946-3.653,1.891-7.378,2.531-11.119A232.633,232.633,0,0,1,251.97,39.742c-.435.673-.869,1.348-1.3,2.019q-46.742,72.89-97.241,143.278c-4.273,5.958-12.408,12.454-17.814,7.5C132.148,189.362,133.05,183.775,134.23,179.223Z" transform="translate(117.849 4.086)" fill="#ffe600"/>
  <path id="Path_3" data-name="Path 3" d="M173.763,208.2c2.665-.173,4.792-2.2,6.663-4.107l113-115.05a233.978,233.978,0,0,0-32.536-47.289q-41.141,75.556-89.309,146.992c-2.292,3.4-4.676,7.025-4.839,11.121S169.673,208.473,173.763,208.2Z" transform="translate(147.546 36.952)" fill="#ffe600"/>
  <path id="Path_4" data-name="Path 4" d="M207.6,215.861q46-23.764,91.994-47.53.664-8.819.671-17.812a234.019,234.019,0,0,0-6.931-56.64,1377.681,1377.681,0,0,1-97.7,105.814c-4.475,4.364-9.3,10.985-5.821,16.176C193.447,221.287,201.807,218.856,207.6,215.861Z" transform="translate(166.916 83.075)" fill="#ffe600"/>
  <path id="Path_5" data-name="Path 5" d="M15.929,152.371c9.722.334,18.61,5.525,26.312,11.466a125.774,125.774,0,0,1,41.314,56.806c3.759,10.491,6.19,21.656,12.267,31s17.209,16.638,28.036,14c5.376-1.31,9.911-4.848,14.018-8.554,33.4-30.144,48.425-75.091,62.14-117.938L237.093,23.3c2.428-7.585,5.012-15.394,8.524-22.564Q236.4.012,227,0C126.075,0,40.105,64,7.453,153.632A24.451,24.451,0,0,1,15.929,152.371Z" transform="translate(6.595)" fill="#0074ff"/>
  <path id="Path_6" data-name="Path 6" d="M77.34,303.883c-13.387-21.648-24.61-44.936-30.015-69.808-4.513-20.759-4.92-42.333-10.678-62.781-7.116-25.26-22.008-47.545-32.11-71.766A233.886,233.886,0,0,0,104.966,340.518,244.975,244.975,0,0,1,77.34,303.883Z" transform="translate(0 88.073)" fill="#0074ff"/>
  <g id="Group_237" data-name="Group 237" transform="translate(503.132 56.193)">
    <g id="Group_236" data-name="Group 236">
      <path id="Path_7" data-name="Path 7" d="M301.854,29.812c-22.9,0-34.072,17.511-34.072,34.928s10.793,34.168,34.072,34.168c23.3,0,33.8-17.132,33.995-34.262C336.037,47.323,324.675,29.812,301.854,29.812Zm0,57.652c-15.624,0-21.488-11.647-21.775-22.534-.285-11.172,6.15-23.771,21.775-23.771s21.871,12.5,21.68,23.675C323.344,75.721,317.48,87.464,301.854,87.464Z" transform="translate(-266.167 -29.812)" fill="#0074ff"/>
      <path id="Path_8" data-name="Path 8" d="M330.107,72.034l19.032-21.3v-.665H335.321L319.6,68.816V30.56H308.063V96.74H319.6V75.63L337.871,96.74H351.8v-.856Z" transform="translate(-230.521 -29.15)" fill="#0074ff"/>
      <path id="Path_9" data-name="Path 9" d="M370.039,41.447l-.379,6.433C367,43.237,361.039,40.3,354.794,40.3c-13.628-.094-24.325,8.337-24.325,24.421,0,16.387,10.222,24.9,24.04,24.8,5.2-.079,12.488-2.741,15.151-8.224l.569,6.814h10.887V41.447Zm-14.2,37.48c-7.67,0-13.835-5.295-13.835-14.2,0-8.889,6.166-14.1,13.835-14.1C374.018,50.622,374.018,78.926,355.84,78.926Z" transform="translate(-210.694 -20.528)" fill="#0074ff"/>
      <path id="Path_10" data-name="Path 10" d="M388.515,40.506c-5.879,0-10.618,2.362-15.339,7l-.762-6.339H362.1V87.938h11.457V64.071c0-7.1,4.818-13.059,11.918-13.059,7.385,0,11.268,5.4,11.268,12.5V87.938h11.553V63.421C408.294,48.747,399.5,40.506,388.515,40.506Z" transform="translate(-182.704 -20.349)" fill="#0074ff"/>
      <path id="Path_11" data-name="Path 11" d="M429.556,41.447l-.381,6.433c-2.662-4.643-8.62-7.576-14.865-7.576-13.628-.094-24.325,8.337-24.325,24.421,0,16.387,10.22,24.9,24.04,24.8,5.2-.079,12.488-2.741,15.149-8.224l.571,6.814h10.872V41.447Zm-14.2,37.48c-7.67,0-13.835-5.295-13.835-14.2,0-8.889,6.166-14.1,13.835-14.1C433.533,50.622,433.533,78.926,415.357,78.926Z" transform="translate(-158.026 -20.528)" fill="#0074ff"/>
      <path id="Path_12" data-name="Path 12" d="M467.639,65.288a19.9,19.9,0,0,0-4.914-13.833l5.2-6.626-8.51-6.433L454.77,44.26c-3.218-2.171-7-2.646-10.7-2.646-13.059,0-23.661,9.1-23.661,23.675s9.082,23.471,23.661,23.471c5.768,0,11.837,2.931,11.837,9.381,0,6.435-5.214,10.032-11.837,10.032s-12.218-3.977-12.218-10.032H420.412c0,12.584,10.128,20.825,23.661,20.825s23.375-7.956,23.375-20.825c0-5.973-1.887-11.553-9.651-15.436C465.467,79.2,467.639,71.058,467.639,65.288ZM444.073,78.253c-6.72,0-12.218-4.833-12.218-12.964s5.5-13.168,12.218-13.168c6.624,0,12.124,5.118,12.124,13.168C456.2,73.324,450.7,78.253,444.073,78.253Z" transform="translate(-131.101 -22.216)" fill="#0074ff"/>
      <path id="Path_13" data-name="Path 13" d="M487.435,41.447l-.381,6.433c-2.646-4.643-8.622-7.576-14.864-7.576-13.63-.094-24.327,8.337-24.327,24.421,0,16.387,10.222,24.9,24.04,24.8,5.214-.079,12.5-2.741,15.151-8.224l.569,6.814h10.887V41.447Zm-14.2,37.48c-7.67,0-13.818-5.295-13.818-14.2,0-8.889,6.149-14.1,13.818-14.1C491.412,50.622,491.412,78.926,473.234,78.926Z" transform="translate(-106.809 -20.528)" fill="#0074ff"/>
      <path id="Path_14" data-name="Path 14" d="M505.909,40.506c-5.879,0-10.6,2.362-15.339,7l-.762-6.339H479.492V87.938H490.95V64.071c0-7.1,4.833-13.059,11.933-13.059,7.383,0,11.266,5.4,11.266,12.5V87.938h11.538V63.421C525.688,48.747,516.893,40.506,505.909,40.506Z" transform="translate(-78.82 -20.349)" fill="#0074ff"/>
      <path id="Path_15" data-name="Path 15" d="M320.981,82.83l-20.063,51.6-19.984-51.6H266.925l27.542,66.558h12.98L334.989,82.83Z" transform="translate(-266.925 17.105)" fill="#0074ff"/>
      <path id="Path_16" data-name="Path 16" d="M305.145,89.407c0,9,13.63,9,13.63,0C318.775,80.421,305.145,80.421,305.145,89.407Zm1.031,12.98v46.861h11.553V102.386Z" transform="translate(-233.103 16.961)" fill="#0074ff"/>
      <path id="Path_17" data-name="Path 17" d="M316.756,82.88v66.18h11.458V82.88Z" transform="translate(-222.828 17.149)" fill="#0074ff"/>
      <path id="Path_18" data-name="Path 18" d="M327.686,82.88v66.18h11.458V82.88Z" transform="translate(-213.156 17.149)" fill="#0074ff"/>
      <path id="Path_19" data-name="Path 19" d="M376.943,93.767l-.381,6.433c-2.646-4.643-8.6-7.576-14.865-7.576-13.63-.094-24.327,8.337-24.327,24.421,0,16.387,10.222,24.9,24.042,24.8,5.214-.094,12.5-2.741,15.149-8.224l.571,6.814h10.887V93.767Zm-14.2,37.48c-7.67,0-13.82-5.295-13.82-14.2,0-8.889,6.151-14.1,13.82-14.1C380.92,102.942,380.92,131.246,362.744,131.246Z" transform="translate(-204.586 25.771)" fill="#0074ff"/>
      <path id="Path_20" data-name="Path 20" d="M415.04,117.593a19.9,19.9,0,0,0-4.929-13.818l5.214-6.625L406.8,90.716l-4.643,5.864c-3.218-2.171-7-2.646-10.7-2.646-13.059,0-23.661,9.08-23.661,23.66s9.082,23.486,23.661,23.486c5.783,0,11.837,2.931,11.837,9.366,0,6.45-5.2,10.047-11.837,10.047s-12.2-3.977-12.2-10.047H367.8c0,12.6,10.128,20.84,23.661,20.84,13.549,0,23.39-7.956,23.39-20.84,0-5.958-1.9-11.538-9.651-15.421C412.853,131.523,415.04,123.378,415.04,117.593Zm-23.58,12.98c-6.72,0-12.2-4.833-12.2-12.98,0-8.13,5.483-13.153,12.2-13.153,6.639,0,12.122,5.118,12.122,13.153C403.581,125.644,398.1,130.573,391.459,130.573Z" transform="translate(-177.66 24.083)" fill="#0074ff"/>
      <path id="Path_21" data-name="Path 21" d="M420.168,92.473c-15.149,0-24.8,10.222-24.8,24.421,0,14.961,9.557,24.9,25.658,24.9,7.1,0,15.151-2.456,20.063-7.574l-7.385-7.291c-2.646,2.758-8.224,4.358-12.488,4.358-8.145,0-13.17-4.168-13.915-9.935H443.75C445.541,102.124,435.794,92.473,420.168,92.473ZM407.49,111.792c1.7-6.069,6.814-9.1,13.059-9.1,6.624,0,11.362,3.027,12.124,9.1Z" transform="translate(-153.265 25.638)" fill="#0074ff"/>
      <path id="Path_22" data-name="Path 22" d="M314.443,135.2v27.923H281.876V135.2H269.388v66.259h12.488V174.676h32.568v26.783h12.408V135.2Z" transform="translate(-264.745 63.448)" fill="#0074ff"/>
      <path id="Path_23" data-name="Path 23" d="M328.348,145.045c-14.866,0-24.136,10.983-24.136,24.327,0,13.438,9.1,24.325,24.231,24.325,15.151,0,24.342-10.887,24.342-24.325C352.784,156.028,343.213,145.045,328.348,145.045Zm.094,38.051c-8.414,0-12.678-6.625-12.678-13.724,0-7,4.358-13.818,12.678-13.818,7.766,0,12.695,6.814,12.695,13.818C341.138,176.47,336.874,183.1,328.443,183.1Z" transform="translate(-233.929 72.16)" fill="#0074ff"/>
      <path id="Path_24" data-name="Path 24" d="M368.2,145.541v23.867c0,7.1-4.833,13.059-11.933,13.059-7.385,0-11.268-5.389-11.268-12.488V145.541H333.462v24.532c0,14.486,8.13,22.9,19.3,22.9,6.529,0,10.983-2.266,15.816-7l.76,6.339h10.318V145.541Z" transform="translate(-208.045 72.599)" fill="#0074ff"/>
      <path id="Path_25" data-name="Path 25" d="M382.986,164.146c-5.958-.364-8.7-2.075-8.7-5.1,0-2.933,3.027-4.644,8.51-4.644,4.454,0,8.241,1.046,11.553,4.168l6.435-7.574c-5.389-4.739-10.887-6.149-18.178-6.149-8.51,0-19.682,3.787-19.682,14.578,0,10.6,10.507,13.82,19.3,14.486,6.641.381,9.287,1.7,9.287,4.912,0,3.408-4.071,5.691-8.431,5.594-5.2-.094-12.772-2.837-16.084-6.529l-5.689,8.226c6.814,7.1,14.2,8.335,21.584,8.335,13.343,0,20.078-7.1,20.078-15.339C402.97,166.713,391.8,164.717,382.986,164.146Z" transform="translate(-183.404 71.982)" fill="#0074ff"/>
      <path id="Path_26" data-name="Path 26" d="M386.211,141.727c0,9,13.628,9,13.628,0C399.839,132.741,386.211,132.741,386.211,141.727Zm1.046,12.963v46.878h11.536V154.689Z" transform="translate(-161.366 63.26)" fill="#0074ff"/>
      <path id="Path_27" data-name="Path 27" d="M424.205,145.146c-5.879,0-10.6,2.362-15.34,7L408.1,145.8H397.788v46.782h11.457V168.711c0-7.1,4.818-13.059,11.918-13.059,7.385,0,11.268,5.389,11.268,12.489v24.436h11.553V168.046C443.984,153.372,435.172,145.146,424.205,145.146Z" transform="translate(-151.122 72.249)" fill="#0074ff"/>
      <path id="Path_28" data-name="Path 28" d="M472.859,169.913a19.913,19.913,0,0,0-4.929-13.818l5.214-6.625-8.525-6.433L459.99,148.9c-3.235-2.171-7.021-2.646-10.714-2.646-13.059,0-23.659,9.08-23.659,23.66s9.1,23.486,23.659,23.486c5.785,0,11.839,2.931,11.839,9.366s-5.2,10.032-11.839,10.032c-6.624,0-12.2-3.962-12.2-10.032H425.617c0,12.6,10.126,20.823,23.659,20.823,13.551,0,23.392-7.939,23.392-20.823,0-5.958-1.9-11.553-9.653-15.436C470.687,183.828,472.859,175.7,472.859,169.913Zm-23.582,12.98c-6.72,0-12.2-4.833-12.2-12.98,0-8.13,5.483-13.153,12.2-13.153,6.641,0,12.124,5.118,12.124,13.153C461.4,177.964,455.917,182.893,449.276,182.893Z" transform="translate(-126.495 70.382)" fill="#0074ff"/>
      <path id="Path_29" data-name="Path 29" d="M297.343,214.293c-7.954-.952-14.77-2.567-14.77-8.335,0-4.929,4.437-8.812,13.724-8.812,7.195,0,13.44,3.6,15.705,7.385l9.952-5.1c-5.023-10.239-15.72-13.17-26.038-13.17-12.218.094-25.656,5.689-25.656,19.319,0,14.864,12.5,18.463,26.036,20.063,8.8.95,15.341,3.5,15.341,9.762,0,7.195-7.385,9.935-15.245,9.935-8.05,0-15.722-3.218-18.653-10.507l-10.412,5.389c4.914,12.122,15.341,16.291,28.875,16.291,14.77,0,27.827-6.339,27.827-21.109C324.03,219.586,311.162,215.988,297.343,214.293Z" transform="translate(-266.568 108.631)" fill="#0074ff"/>
      <path id="Path_30" data-name="Path 30" d="M324.252,197.357c-14.864,0-24.151,10.982-24.151,24.342,0,13.438,9.1,24.325,24.246,24.325,15.134,0,24.327-10.887,24.327-24.325C348.673,208.339,339.117,197.357,324.252,197.357Zm.094,38.066c-8.431,0-12.693-6.625-12.693-13.724,0-7,4.358-13.818,12.693-13.818,7.751,0,12.678,6.814,12.678,13.818C337.025,228.8,332.763,235.423,324.347,235.423Z" transform="translate(-237.567 118.452)" fill="#0074ff"/>
      <path id="Path_31" data-name="Path 31" d="M363.179,231.617a14.041,14.041,0,0,1-10.222,3.881c-7.195,0-13.247-4.737-13.247-13.628,0-8.147,5.674-13.818,13.438-13.818a14.1,14.1,0,0,1,9.366,3.691l7.291-7.67a22.124,22.124,0,0,0-16.847-6.908c-13.534,0-24.8,8.13-24.8,24.706,0,16.561,11.266,24.706,24.8,24.706a24,24,0,0,0,17.988-7.385Z" transform="translate(-212.74 118.281)" fill="#0074ff"/>
      <path id="Path_32" data-name="Path 32" d="M352.564,194.052c0,8.985,13.628,8.985,13.628,0C366.192,185.052,352.564,185.052,352.564,194.052Zm1.046,12.963v46.863h11.553V207.015Z" transform="translate(-191.141 109.554)" fill="#0074ff"/>
      <path id="Path_33" data-name="Path 33" d="M387.69,197.113c-15.151,0-24.8,10.222-24.8,24.421,0,14.961,9.557,24.9,25.641,24.9,7.117,0,15.151-2.456,20.08-7.574l-7.385-7.291c-2.646,2.743-8.241,4.358-12.5,4.358-8.13,0-13.153-4.168-13.913-9.935h36.449C413.061,206.764,403.3,197.113,387.69,197.113Zm-12.695,19.3c1.713-6.052,6.816-9.08,13.076-9.08,6.624,0,11.362,3.027,12.107,9.08Z" transform="translate(-182.005 118.236)" fill="#0074ff"/>
      <path id="Path_34" data-name="Path 34" d="M422.153,239.44a13.188,13.188,0,0,1-5.594,1.425c-3.6,0-6.054-2.17-6.054-6.624V214.068h12.963v-9.935H410.6V190.883l-11.553,1.237v12.013H390.33v9.935h8.716v20.174c0,11.649,6.625,17.417,16.751,17.036a26.025,26.025,0,0,0,9.572-1.981Z" transform="translate(-157.721 112.723)" fill="#0074ff"/>
      <path id="Path_35" data-name="Path 35" d="M448.38,197.861l-8.526,20.459-4.833,12.868-4.437-13.153-7.1-20.174H410.029l18.653,45.926-8.7,20.253h12.678l28.494-66.18Z" transform="translate(-140.289 118.898)" fill="#0074ff"/>
    </g>
  </g>
</svg>
