<svg xmlns="http://www.w3.org/2000/svg" width="1000" height="1067.565" viewBox="0 0 1000 1067.565">
  <g id="Group_241" data-name="Group 241" transform="translate(-11.032 -15.787)">
    <path id="Path_36" data-name="Path 36" d="M591.728,323.077c-48.982,38.4-91.695,83.981-139.644,123.57V366.32a9.908,9.908,0,0,1,9.669-10.128h36.191c9.437,0,13.3-12.723,5.58-18.418L311.293,195.7a9.3,9.3,0,0,0-11.117,0L107.946,337.775c-7.691,5.695-3.857,18.418,5.58,18.418h36.191a9.908,9.908,0,0,1,9.669,10.128V479.533a336.673,336.673,0,0,0,108.091,34.836c1.562-13.941,3.147-27.9,4.089-41.91.964-14.788,2.18-29.553-.6-44.182-5.419-28.635-18.969-55-32.38-80.559,1.609,2.551,27.811,43.243,65.219,43.4,36.832-.161,62.8-39.566,65.127-43.243-1.885,3.171-3.422,6.684-5.078,9.991-24.686,49.394-36.166,104.6-37.406,159.76,142.077-4.34,262.063-96.242,307.945-223.554C619.1,304.04,604.038,313.433,591.728,323.077ZM303.807,376.56a21.574,21.574,0,1,1,21.561-21.586A21.586,21.586,0,0,1,303.807,376.56Z" transform="translate(242.76 373.242)" fill="#fff"/>
    <path id="Path_37" data-name="Path 37" d="M192.241,322.237q30.679-118.45,61.36-236.9c1.371-5.293,2.74-10.691,3.668-16.11a337.093,337.093,0,0,1,105.583,50.9q-.946,1.467-1.882,2.928Q293.235,228.672,220.063,330.669c-6.195,8.631-17.983,18.046-25.814,10.865C189.223,336.929,190.531,328.836,192.241,322.237Z" transform="translate(365.099 92.522)" fill="#fff"/>
    <path id="Path_38" data-name="Path 38" d="M234.457,347.558c3.865-.254,6.943-3.19,9.655-5.954l163.74-166.711a339.068,339.068,0,0,0-47.146-68.527q-59.616,109.485-129.412,213c-3.321,4.925-6.779,10.182-7.014,16.118S228.53,347.946,234.457,347.558Z" transform="translate(434.287 186.166)" fill="#fff"/>
    <path id="Path_39" data-name="Path 39" d="M273.666,335.249q66.651-34.44,133.3-68.877.963-12.779.972-25.811A339.136,339.136,0,0,0,397.9,158.486a1996.361,1996.361,0,0,1-141.58,153.333c-6.484,6.323-13.479,15.918-8.434,23.441C253.154,343.112,265.264,339.589,273.666,335.249Z" transform="translate(489.162 289.831)" fill="#fff"/>
    <path id="Path_40" data-name="Path 40" d="M77.273,285.4c14.088.483,26.967,8.006,38.127,16.618a182.231,182.231,0,0,1,59.866,82.312c5.446,15.205,8.97,31.381,17.776,44.92s24.937,24.11,40.629,20.283c7.787-1.9,14.359-7.025,20.31-12.4,48.392-43.68,70.171-108.809,90.045-170.9L397.752,98.377c3.518-10.991,7.263-22.307,12.354-32.7q-13.356-1.053-26.983-1.068c-146.243,0-270.817,92.743-318.133,222.622A35.388,35.388,0,0,1,77.273,285.4Z" transform="translate(114.536 84.529)" fill="#fff"/>
    <path id="Path_41" data-name="Path 41" d="M169.608,460.261c-19.4-31.372-35.661-65.118-43.494-101.159-6.539-30.081-7.126-61.344-15.473-90.971-10.308-36.606-31.891-68.9-46.526-104a339.961,339.961,0,0,0-6.577,66.645c0,118.068,60.464,222,152.1,282.568A355.306,355.306,0,0,1,169.608,460.261Z" transform="translate(80.516 313.131)" fill="#fff"/>
    <g id="Group_239" data-name="Group 239" transform="translate(11.032 15.787)">
      <path id="Path_42" data-name="Path 42" d="M76.1,122.2c23.143,7.839,41.722,29.663,31.416,61.232s-37.791,38.783-61.4,31.075-42.407-30.6-32.271-61.652C23.934,121.929,52.7,114.278,76.1,122.2ZM51.816,197.907c14.883,4.433,33.265,1.628,40.176-19.546s-6.405-34.322-21.078-39.4c-15.061-5.2-34.762-2.259-41.672,18.915S36.548,193.351,51.816,197.907Z" transform="translate(-11.032 163.419)" fill="#fff"/>
      <path id="Path_43" data-name="Path 43" d="M31.933,113.737l46.925,27.781-11.581-32.9L77.314,91.662l.814.481,12.313,38.821,45.018-9.27,1.046.617L126.4,139.387l-39.176,7.082,25.9,15.334-8.388,14.173L23.542,127.907Z" transform="translate(10.626 115.58)" fill="#fff"/>
      <path id="Path_44" data-name="Path 44" d="M74.994,79.456l10.3-11.977,50.462,43.4-10.122,11.769-7.9-5.722c3.472,7.973-.442,18.317-5.179,24.036-12.75,15.031-31.468,18.164-49.175,2.936-17.4-14.962-16.566-34.363-3.788-49.014C65.4,88.123,74.122,84.4,81.6,85.85Zm-.874,51.951c9.623,8.276,21.075,6.55,28.207-1.74,16.9-19.655-13.706-45.972-30.608-26.319C64.59,111.637,64.5,123.133,74.12,131.407Z" transform="translate(56.684 73.711)" fill="#fff"/>
      <path id="Path_45" data-name="Path 45" d="M149.6,102.173l-21.376-27.5c-6.214-7.992-15.307-10.669-23.618-4.206-7.992,6.214-8.208,17.153-1.994,25.145l20.879,26.855L110.6,132.5,69.67,79.852l11.616-9.033,6.4,6.479c1.267-9.366,4.526-16.172,11.133-21.31,12.362-9.612,29.482-8.044,42.322,8.473l21.46,27.6Z" transform="translate(106.451 43.554)" fill="#fff"/>
      <path id="Path_46" data-name="Path 46" d="M139.264,36.964l14.143-7.033,29.649,59.585-13.9,6.916L164.1,88.09c.1,8.694-7.517,16.71-14.1,20.138-17.587,8.9-36.054,4.518-46.458-16.391-10.223-20.548-1.917-38.1,15.547-46.638,7.978-3.971,17.456-4.012,23.787.227ZM118.284,84.5c5.654,11.36,16.877,14.219,26.666,9.349,23.208-11.548,5.225-47.687-17.981-36.139C117.178,62.582,112.63,73.138,118.284,84.5Z" transform="translate(165.131 8.701)" fill="#fff"/>
      <path id="Path_47" data-name="Path 47" d="M173.949,19.233l14.138,5.657-4.673,11.073c6.479,4.25,10.043,10.133,11.961,17.167,2.169,7.946,2.232,19.964-7,27.663,12.138,2.423,16.842,9.4,19.081,17.6,4.835,17.713-5.725,32.35-24.35,37.433s-35.652-2.442-40.38-19.764l15.76-4.3c2.275,8.336,11.453,11.709,20.567,9.218s14.93-9.393,12.512-18.248-11.854-10.617-19.8-8.451c-20.056,5.476-35.9-3.354-41.375-23.41s5.7-36.543,23.673-41.448c5.078-1.388,10.467-2.158,15.711-.371ZM146.144,66.567c3.059,11.2,12.425,15.782,21.673,13.258,9.117-2.491,14.82-11.324,11.8-22.394S167.12,41.39,158,43.878C148.757,46.4,143.087,55.366,146.144,66.567Z" transform="translate(224.788 -9.821)" fill="#fff"/>
      <path id="Path_48" data-name="Path 48" d="M211.908,18.319l15.754-1.114,4.7,66.386-15.484,1.1-1.5-9.639c-3.217,8.077-13.318,12.583-20.715,13.242-19.649,1.53-35.052-9.56-36.7-32.856-1.622-22.892,12.745-35.956,32.145-37.2,8.888-.628,17.666,2.944,21.905,9.276ZM174.4,54.272c.9,12.657,10.185,19.578,21.092,18.805,25.855-1.833,23-42.1-2.854-40.266C181.726,33.588,173.5,41.615,174.4,54.272Z" transform="translate(282.234 -13.332)" fill="#fff"/>
      <path id="Path_49" data-name="Path 49" d="M238.572,89.808l4.452-34.549c1.295-10.043-3.212-18.385-13.657-19.729-10.043-1.3-17.959,6.26-19.256,16.3L205.765,85.58l-16.2-2.087,8.522-66.154,14.6,1.882-.085,9.109c7.541-5.7,14.667-8.183,22.971-7.112,15.533,2,26.486,15.255,23.812,36.01l-4.471,34.683Z" transform="translate(345.359 -13.098)" fill="#fff"/>
      <path id="Path_50" data-name="Path 50" d="M256.509,126.118l-16.831-7.67,3.594-102.661,18.183,8.284-4.581,78.77,56.553-55.094,18.183,8.284Z" transform="translate(446.996 -15.787)" fill="#fff"/>
      <path id="Path_51" data-name="Path 51" d="M311.629,66.109l-37.136,55.559L260.8,112.515l37.136-55.559ZM306.98,40.757c-7.126,10.66,9.035,21.463,16.161,10.8S314.106,30.093,306.98,40.757Z" transform="translate(487.095 19.847)" fill="#fff"/>
      <path id="Path_52" data-name="Path 52" d="M341.626,53.829l-58.47,74.053-12.818-10.12,58.467-74.055Z" transform="translate(519.992 32.553)" fill="#fff"/>
      <path id="Path_53" data-name="Path 53" d="M355.341,63.8l-64.119,69.248-11.988-11.1L343.353,52.7Z" transform="translate(535.394 48.119)" fill="#fff"/>
      <path id="Path_54" data-name="Path 54" d="M366.829,105.017l9.967,12.25-51.615,42-9.795-12.043,7.028-6.76c-8.459,2.01-17.95-3.668-22.741-9.339-12.54-15.2-12.318-34.175,5.793-48.913,17.8-14.482,36.742-10.232,48.905,4.927,5.621,6.91,7.743,16.148,5,23.252Zm-50.97-10.035c-9.841,8.008-10.169,19.584-3.267,28.065,16.355,20.1,47.66-5.37,31.3-25.47C336.995,89.1,325.7,86.976,315.859,94.982Z" transform="translate(555.704 83.781)" fill="#fff"/>
      <path id="Path_55" data-name="Path 55" d="M412.559,135.345l-2.4,15.036-11.83-2.111c-2.712,7.254-7.664,12.032-14.1,15.457-7.268,3.868-18.972,6.583-28.521-.721.317,12.37-5.446,18.5-12.952,22.493-16.205,8.628-32.809,1.562-41.883-15.476s-5.49-35.308,10.357-43.743l7.675,14.416c-7.626,4.059-8.888,13.755-4.449,22.094s12.46,12.485,20.562,8.172,7.735-13.905,3.868-21.173c-9.77-18.352-4.657-35.754,13.692-45.521s36.892-2.513,45.647,13.93c2.475,4.646,4.417,9.732,3.832,15.241Zm-52.3-16.661c-10.248,5.457-12.646,15.6-8.142,24.063,4.441,8.342,14.315,11.952,24.443,6.561s12.884-15.727,8.445-24.069C380.5,116.78,370.507,113.229,360.259,118.683Z" transform="translate(564.396 129.769)" fill="#fff"/>
      <path id="Path_56" data-name="Path 56" d="M344.833,146.954c-7.555,3.452-11.133,12.034-7.721,23.132,1.781,5.807,6.315,12.745,11.166,15.208l-6.845,13.116c-9.03-4.57-15.752-14.506-18.723-24.184-6.738-21.936,2.805-39.129,23.192-45.392,19.357-5.946,37.335,2.936,43.677,23.58,6.539,21.291-2.54,38.624-29.488,44.218Zm23.654,30.58c7.94-3.57,10.087-11.291,7.315-20.324-2.617-8.514-8.885-14.214-17.858-14Z" transform="translate(606.956 176.797)" fill="#fff"/>
    </g>
    <g id="Group_240" data-name="Group 240" transform="translate(46.61 720.067)">
      <path id="Path_57" data-name="Path 57" d="M53.516,338.464l31.859-17.513L64.083,282.225,32.228,299.739,24.058,284.88l78.8-43.322,8.169,14.859L77.817,274.676,99.108,313.4l33.208-18.256,8.109,14.747-78.8,43.322Z" transform="translate(-24.058 -241.558)" fill="#fff"/>
      <path id="Path_58" data-name="Path 58" d="M103.447,338.61c-13.788,11.942-33.115,12.2-46.572-3.34S46.512,300.737,60.3,288.793c13.692-11.857,33.2-12.1,46.406,3.149S117.14,326.751,103.447,338.61ZM70.562,300.642c-7.282,6.307-10.294,16.563-2.811,25.2s18.068,7.126,25.35.819c7.186-6.225,9.806-17.328,2.909-25.292C88.608,292.83,77.748,294.417,70.562,300.642Z" transform="translate(17.784 -174.699)" fill="#fff"/>
      <path id="Path_59" data-name="Path 59" d="M111.271,306.935,90.647,332.883c-5.993,7.544-6.427,16.552,1.418,22.788,7.541,6,17.707,3.737,23.7-3.807l20.144-25.342,12.168,9.672-39.487,49.681-10.964-8.713,4.553-7.377c-9.128.951-15.771-.393-22.711-5.908-11.868-9.434-13.4-25.257-1.172-40.645L99,297.184Z" transform="translate(55.17 -145.249)" fill="#fff"/>
      <path id="Path_60" data-name="Path 60" d="M149.834,345.244c-1.923-5.87-5.76-9.568-11.065-12.455-6.542-3.559-11.259-3.493-13.16.005-1.967,3.611.2,7.421,7.063,11.739,10.125,6.386,22.149,16,14.107,30.78-5.343,9.814-17.959,13.916-33.863,5.263-8.8-4.791-16.8-11.046-20.321-23.927l12.108-6.132c1.557,6.55,8.8,14.73,14.943,18.221,5.13,2.936,11.455,2.868,13.665-1.194,2.087-3.835-.213-7.134-7.864-11.881-10.065-6.5-20.5-17.15-13.624-29.785,7-12.862,22.769-10.131,32.921-4.6,8.688,4.728,14.31,9.98,17.672,19.12Z" transform="translate(113.515 -111.524)" fill="#fff"/>
      <path id="Path_61" data-name="Path 61" d="M153.641,345.253l-23.746,58.984-14.536-5.853L139.1,339.4Zm-9.276-22.7c-4.559,11.319,12.6,18.226,17.158,6.908S148.921,311.229,144.365,322.55Z" transform="translate(158.514 -111.345)" fill="#fff"/>
      <path id="Path_62" data-name="Path 62" d="M174.21,402.711l8.205-32.107c2.384-9.333-.9-17.729-10.611-20.212-9.333-2.385-17.686,3.835-20.07,13.168l-8.014,31.361-15.055-3.848L144.373,329.6l13.564,3.466-1.136,8.593c7.782-4.509,14.8-6.028,22.515-4.059,14.438,3.69,23.244,17.475,18.316,36.764l-8.238,32.233Z" transform="translate(185.933 -89.134)" fill="#fff"/>
      <path id="Path_63" data-name="Path 63" d="M217.454,335.11,228.4,344.6l-7.656,8.495c4.5,5.84,5.867,12.242,5.4,19.163-.53,7.817-4.223,18.639-14.924,22.679,10.152,5.965,12.2,13.7,11.66,21.774-1.18,17.429-15.238,27.292-33.563,26.052s-31.285-13.315-30.132-30.359l15.506,1.046c-.554,8.2,6.643,14.1,15.615,14.706s16.35-3.786,16.937-12.5-7.345-13.244-15.162-13.772c-19.734-1.336-31.225-14.214-29.889-33.951s16.522-31.069,34.208-29.873c5,.339,10.081,1.327,14.239,4.57ZM177.7,368.984c-.746,11.021,6.244,18.063,15.345,18.677,8.97.606,16.855-5.556,17.59-16.448s-6.228-18.316-15.2-18.926C186.336,351.673,178.442,357.963,177.7,368.984Z" transform="translate(247.005 -79.586)" fill="#fff"/>
      <path id="Path_64" data-name="Path 64" d="M254.6,344.927c-4.012-4.449-13.272-7.612-22.853-5.736-12.354,2.417-17.268,8.746-15.987,15.3,1.508,7.692,11,8.058,21.84,7.246,18.852-1.333,36.933.1,41.055,21.157,3.849,19.666-11.9,31.52-31.564,35.368-18.027,3.526-32.984.694-42.7-14.159l12.463-9.9c5.807,8.943,16.858,11.231,27.573,9.134,10.467-2.049,19.584-7.629,17.707-17.21-1.628-8.32-10.994-10.021-22.965-8.989-18.448,1.385-36.027-.148-39.9-19.942-3.554-18.155,12.892-29.1,29.133-32.4,13.741-2.69,28.753-1.571,38.1,10.737Z" transform="translate(327.31 -99.531)" fill="#fff"/>
      <path id="Path_65" data-name="Path 65" d="M296.313,345.475c6.959,16.861,1.079,35.27-17.92,43.112s-36.032-1.109-42.994-17.97c-6.91-16.743-.959-35.319,17.683-43.013S289.4,328.732,296.313,345.475Zm-46.428,19.163c3.676,8.9,12.45,15.012,23.017,10.65s12.48-14.88,8.8-23.785c-3.625-8.787-13.329-14.788-23.064-10.77C248.192,345.047,246.258,355.852,249.885,364.639Z" transform="translate(394.327 -97.443)" fill="#fff"/>
      <path id="Path_66" data-name="Path 66" d="M326.1,351.5c-2.374,9.986-7.4,16.478-15.339,21.466-15.555,9.767-34.374,8.541-46.329-10.5s-4.884-36.518,10.671-46.286c7.615-4.783,14.856-6.3,24.35-4.22l-2.843,14.072a19.241,19.241,0,0,0-13.433,2.518c-8.921,5.6-11.349,16.227-5.474,25.585,6.422,10.224,16.8,11.291,25.066,6.1,4.242-2.666,7.732-6.525,8.948-11.838Z" transform="translate(446.192 -121.238)" fill="#fff"/>
      <path id="Path_67" data-name="Path 67" d="M285.938,299.969c7.615,9.533-6.837,21.072-14.452,11.54S278.323,290.434,285.938,299.969Zm-2.368,24.407,39.673,49.678,12.245-9.778L295.815,314.6Z" transform="translate(467.969 -146.609)" fill="#fff"/>
      <path id="Path_68" data-name="Path 68" d="M313.407,338.173c6.345,4.709,15.143,3.747,22.823-4.193,4.018-4.152,7.719-11.119,7.541-16.293l14.078-.322c.339,9.623-4.854,19.791-11.551,26.713-15.184,15.7-33.9,15.642-48.482,1.53-13.848-13.4-14.708-32.459-.418-47.231,14.736-15.23,33.353-15.629,50.4,4.255Zm14.613-33.762c-6.624-4.977-14.042-3.217-20.294,3.242-5.894,6.094-7.765,13.938-3.463,21.315Z" transform="translate(513.349 -162.367)" fill="#fff"/>
      <path id="Path_69" data-name="Path 69" d="M306.483,271.683l14.695,10.363,10.068-14.277,11.024,7.771-10.142,14.383,22.362,15.765c4.936,3.48,9.276,2.453,12.089-1.538a17.888,17.888,0,0,0,2.789-7.3l13.436,4.127a34.981,34.981,0,0,1-5.269,12.157c-7.5,11.532-19.087,14.364-32,5.261l-22.362-15.765-6.809,9.658-11.024-7.773,6.809-9.658-13.332-9.4Z" transform="translate(533.72 -196.177)" fill="#fff"/>
      <path id="Path_70" data-name="Path 70" d="M343.374,242.574,406.744,317l-7.623,15.432-19.409-22.769-67.058-4.905,8.077-16.353,28.794,3.48,18.682,2.5-12.761-13.61-19.753-22.651Z" transform="translate(557.678 -239.799)" fill="#fff"/>
    </g>
    <circle id="Ellipse_1" data-name="Ellipse 1" cx="23.343" cy="23.343" r="23.343" transform="translate(955.648 541.375)" fill="#fff"/>
    <circle id="Ellipse_2" data-name="Ellipse 2" cx="23.343" cy="23.343" r="23.343" transform="translate(39.943 541.375)" fill="#fff"/>
  </g>
</svg>
